<?xml version="1.0" encoding="utf-8"?>
<!-- Generator: Adobe Illustrator 16.0.3, SVG Export Plug-In . SVG Version: 6.00 Build 0)  -->
<!DOCTYPE svg PUBLIC "-//W3C//DTD SVG 1.1//EN" "http://www.w3.org/Graphics/SVG/1.1/DTD/svg11.dtd">
<svg version="1.1" id="Ebene_1" xmlns="http://www.w3.org/2000/svg" xmlns:xlink="http://www.w3.org/1999/xlink" x="0px" y="0px"
	 width="179.598px" height="89.167px" viewBox="0 0 179.598 89.167" enable-background="new 0 0 179.598 89.167"
	 xml:space="preserve">
<g>
	<path fill="#C4101F" d="M0.456,40.963V2.904h12.573c4.827,0,8.753,1.508,11.776,4.522c3.022,3.014,4.534,6.892,4.534,11.632v5.777
		c0,4.757-1.512,8.635-4.534,11.632c-3.023,2.997-6.949,4.496-11.776,4.496H0.456z M6.809,8v27.892h6.221
		c3.05,0,5.473-1.032,7.268-3.098c1.795-2.064,2.692-4.718,2.692-7.959v-5.83c0-3.206-0.897-5.842-2.692-7.907
		C18.502,9.034,16.079,8,13.029,8H6.809z"/>
	<path fill="#C4101F" d="M47.665,41.512c-4.13,0-7.357-1.303-9.685-3.908c-2.326-2.604-3.489-5.981-3.489-10.129v-1.046
		c0-4.146,1.163-7.567,3.489-10.26s5.328-4.029,9.005-4.013c3.799,0,6.675,1.173,8.627,3.517c1.951,2.344,2.928,5.476,2.928,9.396
		v3.425H41.052L41,28.625c0.069,2.317,0.681,4.2,1.829,5.646c1.15,1.446,2.885,2.169,5.202,2.169c1.726,0,3.22-0.209,4.483-0.627
		c1.263-0.418,2.435-1.02,3.516-1.804l2.065,4.156c-1.081,0.941-2.511,1.734-4.287,2.379C52.031,41.189,49.982,41.512,47.665,41.512
		z M46.985,17.254c-1.655,0-2.979,0.598-3.973,1.791c-0.994,1.193-1.612,2.749-1.856,4.666l0.053,0.13h11.058v-0.496
		c0-1.813-0.423-3.28-1.269-4.404S48.815,17.254,46.985,17.254z"/>
	<path fill="#C4101F" d="M88.47,27.763c0,4.112-0.969,7.433-2.902,9.959c-1.935,2.527-4.626,3.79-8.077,3.79
		c-1.604,0-3.023-0.287-4.261-0.862c-1.238-0.575-2.3-1.42-3.188-2.536v13.723h-6.353V12.68h5.358l0.627,3.555
		c0.906-1.324,2-2.335,3.28-3.032c1.281-0.696,2.768-1.046,4.457-1.046c3.485,0,6.199,1.382,8.144,4.144
		c1.942,2.763,2.915,6.4,2.915,10.913V27.763L88.47,27.763z M82.144,27.213c0-2.893-0.545-5.258-1.635-7.097
		c-1.089-1.838-2.715-2.758-4.875-2.758c-1.323,0-2.447,0.283-3.371,0.85c-0.925,0.567-1.664,1.355-2.223,2.366v12.782
		c0.559,0.993,1.298,1.756,2.223,2.287c0.924,0.531,2.063,0.797,3.424,0.797c2.161,0,3.776-0.797,4.85-2.392
		c1.071-1.595,1.607-3.689,1.607-6.286V27.213z"/>
	<path fill="#C4101F" d="M92.835,26.56c0-4.217,1.154-7.672,3.463-10.364c2.31-2.692,5.468-4.039,9.476-4.039
		c4.061,0,7.246,1.347,9.555,4.039c2.31,2.692,3.465,6.147,3.465,10.364v0.549c0,4.253-1.155,7.716-3.465,10.391
		c-2.309,2.676-5.477,4.013-9.502,4.013c-4.043,0-7.219-1.342-9.527-4.025c-2.308-2.683-3.463-6.143-3.463-10.378L92.835,26.56
		L92.835,26.56z M99.187,27.109c0,2.771,0.539,5.02,1.621,6.744c1.08,1.726,2.752,2.588,5.018,2.588c2.213,0,3.873-0.866,4.98-2.601
		c1.104-1.734,1.659-3.978,1.659-6.731V26.56c0-2.701-0.555-4.927-1.659-6.679c-1.107-1.751-2.785-2.627-5.033-2.627
		c-2.213,0-3.863,0.876-4.953,2.627c-1.088,1.752-1.633,3.978-1.633,6.679V27.109z"/>
	<path fill="#C4101F" d="M140.226,33.226c0-0.976-0.414-1.781-1.242-2.418c-0.826-0.636-2.392-1.207-4.691-1.712
		c-3.328-0.68-5.873-1.682-7.633-3.007c-1.76-1.324-2.641-3.102-2.641-5.332c0-2.37,1.002-4.396,3.006-6.078
		c2.004-1.681,4.645-2.522,7.922-2.522c3.379,0,6.104,0.867,8.168,2.602c2.064,1.735,3.055,3.82,2.967,6.261l-0.053,0.156h-6.09
		c0-1.15-0.453-2.147-1.359-2.993c-0.906-0.845-2.117-1.268-3.633-1.268c-1.535,0-2.703,0.349-3.504,1.046
		c-0.801,0.697-1.201,1.551-1.201,2.562c0,0.959,0.373,1.726,1.123,2.301c0.75,0.574,2.291,1.089,4.627,1.542
		c3.467,0.697,6.082,1.721,7.842,3.071s2.642,3.159,2.642,5.424c0,2.545-1.052,4.623-3.15,6.234c-2.1,1.612-4.867,2.418-8.299,2.418
		c-3.678,0-6.58-0.941-8.705-2.823c-2.127-1.882-3.137-4.042-3.031-6.482l0.051-0.157h5.908c0.07,1.639,0.662,2.832,1.777,3.581
		c1.115,0.75,2.475,1.124,4.078,1.124c1.621,0,2.879-0.322,3.776-0.967C139.777,35.143,140.226,34.29,140.226,33.226z"/>
	<path fill="#C4101F" d="M158.943,5.752h-6.354V0.185h6.354V5.752z M158.943,40.963h-6.354V12.68h6.354V40.963z"/>
	<path fill="#C4101F" d="M174.183,5.805v6.875h5.069v4.705h-5.069v15.632c0,1.167,0.252,1.999,0.758,2.496
		c0.504,0.497,1.176,0.745,2.012,0.745c0.35,0,0.689-0.03,1.021-0.092c0.332-0.061,0.645-0.144,0.94-0.248l0.68,4.652
		c-0.541,0.297-1.18,0.527-1.922,0.693c-0.739,0.165-1.512,0.248-2.313,0.248c-2.336,0-4.17-0.684-5.502-2.052
		c-1.334-1.368-2-3.516-2-6.443V17.385h-4.313V12.68h4.313V5.805H174.183z"/>
</g>
<g>
	<path fill="#C4101F" d="M56.876,72.473c0,4.914-1.346,8.889-4.038,11.92c-2.691,3.032-6.305,4.549-10.835,4.549
		c-4.462,0-8.021-1.517-10.679-4.549c-2.657-3.031-3.986-7.006-3.986-11.92v-6.195c0-4.896,1.324-8.868,3.975-11.92
		c2.647-3.049,6.203-4.573,10.665-4.573c4.529,0,8.146,1.524,10.848,4.573c2.701,3.052,4.052,7.022,4.052,11.92L56.876,72.473
		L56.876,72.473z M53.766,66.225c0-4.11-1.042-7.425-3.124-9.933c-2.082-2.51-4.972-3.766-8.665-3.766
		c-3.625,0-6.448,1.256-8.471,3.766c-2.021,2.508-3.031,5.82-3.031,9.933v6.248c0,4.147,1.016,7.478,3.046,9.985
		c2.028,2.508,4.856,3.765,8.481,3.765c3.712,0,6.601-1.25,8.665-3.752c2.065-2.5,3.099-5.832,3.099-9.998V66.225z"/>
	<path fill="#C4101F" d="M67.019,60.11l0.287,4.914c0.924-1.728,2.151-3.063,3.686-4.015c1.533-0.948,3.354-1.424,5.464-1.424
		c3.066,0,5.401,0.938,7.005,2.812c1.604,1.873,2.405,4.797,2.405,8.771v17.227h-3.137V71.192c0-3.239-0.606-5.53-1.817-6.875
		c-1.211-1.342-2.932-2.012-5.162-2.012s-4.029,0.549-5.397,1.646c-1.368,1.098-2.356,2.57-2.968,4.418v20.023h-3.137V60.11H67.019z
		"/>
	<path fill="#C4101F" d="M104.398,86.3c2.004,0,3.776-0.592,5.319-1.776c1.541-1.187,2.313-2.832,2.313-4.94h2.797l0.053,0.158
		c0.07,2.612-0.959,4.801-3.084,6.561c-2.127,1.76-4.592,2.641-7.397,2.641c-3.765,0-6.695-1.324-8.795-3.975
		c-2.103-2.648-3.15-6.037-3.15-10.168v-1.098c0-4.111,1.045-7.492,3.137-10.144c2.093-2.647,5.021-3.974,8.783-3.974
		c3.031,0,5.56,0.914,7.58,2.744c2.021,1.83,2.998,4.234,2.928,7.215l-0.053,0.156h-2.797c0-2.264-0.74-4.072-2.221-5.424
		c-1.482-1.35-3.295-2.025-5.438-2.025c-2.963,0-5.168,1.09-6.613,3.269c-1.446,2.181-2.17,4.905-2.17,8.183V74.8
		c0,3.33,0.724,6.078,2.17,8.248C99.205,85.216,101.419,86.3,104.398,86.3z"/>
	<path fill="#C4101F" d="M132.343,88.942c-3.659,0-6.633-1.295-8.913-3.883c-2.283-2.588-3.427-5.91-3.427-9.974v-1.438
		c0-4.076,1.154-7.439,3.465-10.09c2.31-2.648,5.171-3.973,8.587-3.973c3.434,0,6.086,1.102,7.961,3.307
		c1.873,2.205,2.809,5.172,2.809,8.9v2.432h-19.682v0.861c0,3.225,0.813,5.899,2.442,8.024c1.629,2.127,3.881,3.188,6.758,3.188
		c1.726,0,3.312-0.282,4.757-0.85c1.446-0.566,2.649-1.328,3.606-2.287l1.334,2.144c-0.994,1.047-2.297,1.913-3.908,2.603
		C136.521,88.598,134.591,88.942,132.343,88.942z M132.054,62.251c-2.404,0-4.384,0.863-5.935,2.588
		c-1.551,1.726-2.457,3.912-2.719,6.562l0.078,0.158h16.207v-0.654c0-2.51-0.658-4.577-1.974-6.209
		C136.398,63.067,134.51,62.251,132.054,62.251z"/>
</g>
<rect x="77.154" y="49.833" fill="#095C89" width="102.443" height="2"/>
</svg>
